<?xml version="1.0" encoding="UTF-8"?>
<!DOCTYPE svg PUBLIC "-//W3C//DTD SVG 1.1//EN" "http://www.w3.org/Graphics/SVG/1.1/DTD/svg11.dtd">
<svg xmlns="http://www.w3.org/2000/svg" version="1.1" width="512px" height="512px" style="shape-rendering:geometricPrecision; text-rendering:geometricPrecision; image-rendering:optimizeQuality; fill-rule:evenodd; clip-rule:evenodd" xmlns:xlink="http://www.w3.org/1999/xlink">
<g><path style="opacity:0.995" fill="#000000" d="M 252.5,79.5 C 261.375,78.6851 267.542,82.3517 271,90.5C 271.5,140.166 271.667,189.832 271.5,239.5C 321.168,239.333 370.834,239.5 420.5,240C 430.913,245.468 433.746,253.635 429,264.5C 426.736,267.433 423.902,269.6 420.5,271C 370.834,271.5 321.168,271.667 271.5,271.5C 271.667,321.168 271.5,370.834 271,420.5C 265.532,430.913 257.365,433.746 246.5,429C 243.567,426.736 241.4,423.902 240,420.5C 239.5,370.834 239.333,321.168 239.5,271.5C 189.832,271.667 140.166,271.5 90.5,271C 80.087,265.532 77.2537,257.365 82,246.5C 84.2643,243.567 87.0976,241.4 90.5,240C 140.166,239.5 189.832,239.333 239.5,239.5C 239.333,189.832 239.5,140.166 240,90.5C 242.537,84.7851 246.704,81.1184 252.5,79.5 Z"/></g>
</svg>
