<?xml version="1.0" encoding="UTF-8"?>
<!DOCTYPE svg PUBLIC "-//W3C//DTD SVG 1.1//EN" "http://www.w3.org/Graphics/SVG/1.1/DTD/svg11.dtd">
<svg xmlns="http://www.w3.org/2000/svg" version="1.1" width="512px" height="512px" style="shape-rendering:geometricPrecision; text-rendering:geometricPrecision; image-rendering:optimizeQuality; fill-rule:evenodd; clip-rule:evenodd" xmlns:xlink="http://www.w3.org/1999/xlink">
<g><path style="opacity:0.97" fill="#48D63B" d="M 511.5,97.5 C 511.5,98.5 511.5,99.5 511.5,100.5C 397.062,216.105 282.395,331.605 167.5,447C 166.5,447.667 165.5,447.667 164.5,447C 109.632,391.965 54.6321,337.132 -0.5,282.5C -0.5,281.5 -0.5,280.5 -0.5,279.5C 11.2985,268.202 22.9651,256.702 34.5,245C 35.1667,244.333 35.8333,244.333 36.5,245C 79.6667,288.167 122.833,331.333 166,374.5C 268.833,271 371.667,167.5 474.5,64C 475.5,63.3333 476.5,63.3333 477.5,64C 488.702,75.3687 500.035,86.5354 511.5,97.5 Z"/></g>
</svg>
